ModelForces
version=1
nRows=4
nColumns=155
inDegrees=no

This file contains the forces exerted on a model during a simulation.

A force is a generalized force, meaning that it can be either a force (N) or a torque (Nm).

Units are S.I. units (second, meters, Newtons, ...)
Angles are in degrees.

endheader
time	glut_med1_r	glut_med2_r	glut_med3_r	glut_min1_r	glut_min2_r	glut_min3_r	semimem_r	semiten_r	bifemlh_r	bifemsh_r	sar_r	add_long_r	add_brev_r	add_mag1_r	add_mag2_r	add_mag3_r	tfl_r	pect_r	grac_r	glut_max1_r	glut_max2_r	glut_max3_r	iliacus_r	psoas_r	quad_fem_r	gem_r	peri_r	rect_fem_r	vas_med_r	vas_int_r	vas_lat_r	med_gas_r	lat_gas_r	soleus_r	tib_post_r	flex_dig_r	flex_hal_r	tib_ant_r	per_brev_r	per_long_r	per_tert_r	ext_dig_r	ext_hal_r	glut_med1_l	glut_med2_l	glut_med3_l	glut_min1_l	glut_min2_l	glut_min3_l	semimem_l	semiten_l	bifemlh_l	bifemsh_l	sar_l	add_long_l	add_brev_l	add_mag1_l	add_mag2_l	add_mag3_l	tfl_l	pect_l	grac_l	glut_max1_l	glut_max2_l	glut_max3_l	iliacus_l	psoas_l	quad_fem_l	gem_l	peri_l	rect_fem_l	vas_med_l	vas_int_l	vas_lat_l	med_gas_l	lat_gas_l	soleus_l	tib_post_l	flex_dig_l	flex_hal_l	tib_ant_l	per_brev_l	per_long_l	per_tert_l	ext_dig_l	ext_hal_l	ercspn_r	ercspn_l	intobl_r	intobl_l	extobl_r	extobl_l	femur_lat_meniscii_r.femur_lat_r.force.X	femur_lat_meniscii_r.femur_lat_r.force.Y	femur_lat_meniscii_r.femur_lat_r.force.Z	femur_lat_meniscii_r.femur_lat_r.torque.X	femur_lat_meniscii_r.femur_lat_r.torque.Y	femur_lat_meniscii_r.femur_lat_r.torque.Z	femur_lat_meniscii_r.meniscus_lat_r.force.X	femur_lat_meniscii_r.meniscus_lat_r.force.Y	femur_lat_meniscii_r.meniscus_lat_r.force.Z	femur_lat_meniscii_r.meniscus_lat_r.torque.X	femur_lat_meniscii_r.meniscus_lat_r.torque.Y	femur_lat_meniscii_r.meniscus_lat_r.torque.Z	femur_med_meniscii_r.femur_med_r.force.X	femur_med_meniscii_r.femur_med_r.force.Y	femur_med_meniscii_r.femur_med_r.force.Z	femur_med_meniscii_r.femur_med_r.torque.X	femur_med_meniscii_r.femur_med_r.torque.Y	femur_med_meniscii_r.femur_med_r.torque.Z	femur_med_meniscii_r.meniscus_med_r.force.X	femur_med_meniscii_r.meniscus_med_r.force.Y	femur_med_meniscii_r.meniscus_med_r.force.Z	femur_med_meniscii_r.meniscus_med_r.torque.X	femur_med_meniscii_r.meniscus_med_r.torque.Y	femur_med_meniscii_r.meniscus_med_r.torque.Z	femur_med_tibia_r.tibia_upper_r.force.X	femur_med_tibia_r.tibia_upper_r.force.Y	femur_med_tibia_r.tibia_upper_r.force.Z	femur_med_tibia_r.tibia_upper_r.torque.X	femur_med_tibia_r.tibia_upper_r.torque.Y	femur_med_tibia_r.tibia_upper_r.torque.Z	femur_med_tibia_r.femur_med_r.force.X	femur_med_tibia_r.femur_med_r.force.Y	femur_med_tibia_r.femur_med_r.force.Z	femur_med_tibia_r.femur_med_r.torque.X	femur_med_tibia_r.femur_med_r.torque.Y	femur_med_tibia_r.femur_med_r.torque.Z	femur_lat_tibia_r.tibia_upper_r.force.X	femur_lat_tibia_r.tibia_upper_r.force.Y	femur_lat_tibia_r.tibia_upper_r.force.Z	femur_lat_tibia_r.tibia_upper_r.torque.X	femur_lat_tibia_r.tibia_upper_r.torque.Y	femur_lat_tibia_r.tibia_upper_r.torque.Z	femur_lat_tibia_r.femur_lat_r.force.X	femur_lat_tibia_r.femur_lat_r.force.Y	femur_lat_tibia_r.femur_lat_r.force.Z	femur_lat_tibia_r.femur_lat_r.torque.X	femur_lat_tibia_r.femur_lat_r.torque.Y	femur_lat_tibia_r.femur_lat_r.torque.Z	aACL_R	pACL_R	aPCL_R	pPCL_R	aMCL_R	mMCL_R	pMCL_R	aLCL_R	mLCL_R	pLCL_R	aPCL_L	pPCL_L	aMCL_L	aLCL_L
      0.21437055	      9.58158582	      7.05902987	      7.57681665	      3.28204977	      3.85529765	      4.05102359	      0.00000000	    165.64815917	    179.88415384	    341.67344464	    122.10833930	      7.01179659	      5.10162239	      3.63143009	      3.06874101	      5.09994134	      3.12101073	      2.76719914	     92.75009920	      4.55564582	      6.92743547	      5.19154850	     25.18480883	     15.83819147	      4.49730791	      3.26747373	      5.49831574	    121.11443203	     40.97622420	     75.83140697	     57.00371660	      0.00000000	      0.00000000	      0.00000000	      0.00000000	      0.00000000	      0.00000000	     33.99754988	      1.91108009	      4.28348124	     24.67179387	     47.70636867	     10.96082893	      9.58158582	      7.05902987	      7.57681665	      3.28204977	      3.85529765	      4.05102359	     10.63619353	      5.17241568	     10.10697531	      8.94978914	      1.87406689	      7.01179659	      5.10162239	      3.63143009	      3.06874101	      5.09994134	      4.78595890	      2.76719914	      1.92918976	      4.55564582	      6.92743547	      5.19154850	     25.18480883	     15.83819147	      4.49730791	      3.26747373	      5.49831574	     13.98722650	      0.00000000	      0.00000000	      0.00000000	     19.10171088	      8.91719617	     42.31591901	     46.98528916	      4.03734332	      3.51446936	     10.96511081	      5.79551120	     15.63918466	      2.45000497	      7.80190670	      2.50020099	     30.88167367	     30.88167367	     11.32215941	     11.32215941	     28.89306656	     28.89306656	    216.58731932	    129.41993234	     10.18692791	     -7.07636963	      5.00674238	     85.87911352	   -216.58731932	   -129.41993234	    -10.18692791	      3.37955567	     -5.83837939	      3.28549416	      0.00000000	      0.00000000	      0.00000000	      0.00000000	      0.00000000	      0.00000000	      0.00000000	      0.00000000	      0.00000000	      0.00000000	      0.00000000	      0.00000000	   -865.10050772	   -323.17341679	    301.93508193	     -7.18780970	     21.31470046	      2.43402263	    865.10050772	    323.17341679	   -301.93508193	    127.34707698	    -15.20962550	    348.37927268	   -260.94443718	   -105.09110254	    -68.71796539	      3.38042518	     -8.92853819	      0.82883833	    260.94443718	    105.09110254	     68.71796539	    -30.27293197	      6.37358231	    105.19806655	     -0.99522376	      0.00000000	    998.58269605	    634.28893151	     23.20910056	     11.41508943	      0.00000000	      0.00000000	      0.00000000	      0.00000000	      0.00000000	      0.00000000	      0.00000001	      0.00000000
      0.21441364	      9.58043746	      7.05824546	      7.57596427	      3.28170044	      3.85491724	      4.05053843	      0.00000000	    165.66712720	    179.95537970	    341.76801221	    122.10460882	      7.01100823	      5.10108443	      3.63102916	      3.06839385	      5.09931185	      3.12080615	      2.76690259	     92.75110440	      4.55513862	      6.92666217	      5.19095904	     25.18337410	     15.83656024	      4.49681869	      3.26723865	      5.49766287	   1419.29826177	     40.98508442	     75.83990713	     57.01540959	      0.00000000	      0.00000000	      0.00000000	      0.00000000	      0.00000000	      0.00000000	     33.99964082	      1.90567435	      4.27768493	     24.47949736	     47.68587795	     10.95563190	      9.58043746	      7.05824546	      7.57596427	      3.28170044	      3.85491724	      4.05053843	     10.63639111	      5.17179997	     10.10563525	      8.94881467	      1.87386836	      7.01100823	      5.10108443	      3.63102916	      3.06839385	      5.09931185	      4.78556925	      2.76690259	      1.92898177	      4.55513862	      6.92666217	      5.19095904	     25.18337410	     15.83656024	      4.49681869	      3.26723865	      5.49766287	     13.98536896	      0.00000000	      0.00000000	      0.00000000	     19.09966748	      8.91619063	     42.31010896	     46.98276530	      4.03611920	      3.51339989	     10.96370052	      5.79470804	     15.63752156	      2.44975322	      7.80128508	      2.50001045	     30.87837923	     30.87837923	     11.32084825	     11.32084825	     28.89188491	     28.89188491	    209.71164606	    131.03243231	     10.49687846	     -7.24276298	      4.85230038	     83.07991969	   -209.71164606	   -131.03243231	    -10.49687846	      3.42766620	     -5.67532904	      3.41376275	      0.00000000	      0.00000000	      0.00000000	      0.00000000	      0.00000000	      0.00000000	      0.00000000	      0.00000000	      0.00000000	      0.00000000	      0.00000000	      0.00000000	   -862.98277225	   -326.91915464	    301.86778113	     -7.22280312	     21.28658672	      2.61715410	    862.98277225	    326.91915464	   -301.86778113	    127.36803310	    -15.17817648	    347.47062128	   -260.56929953	   -106.68017393	    -68.97996509	      3.42056100	     -8.93139491	      0.90264842	    260.56929953	    106.68017393	     68.97996509	    -30.41298387	      6.36951786	    105.02228499	     -1.66047285	      0.00000000	   1000.20450510	    638.23391793	     23.97647543	     12.64899729	      0.00000000	      0.00000000	      0.00000000	      0.00000000	      0.00000000	      0.00000000	      0.00000001	      0.00000000
      0.21445673	      9.57928974	      7.05746150	      7.57511238	      3.28135131	      3.85453704	      4.05005354	      0.00000000	    165.65232153	    179.98424923	    341.67105324	    122.07476891	      7.01022032	      5.10054678	      3.63062846	      3.06804688	      5.09868273	      3.12110283	      2.76660620	     92.72799585	      4.55463172	      6.92588930	      5.19036992	     25.18194020	     15.83492996	      4.49632974	      3.26700371	      5.49701016	    331.71971604	     40.96121139	     75.80536825	     56.98703951	      0.00000000	      0.00000000	      0.00000000	      0.00000000	      0.00000000	      0.00000000	     34.00351087	      1.90005037	      4.27158469	     24.29490841	     47.66643611	     10.95071679	      9.57928974	      7.05746150	      7.57511238	      3.28135131	      3.85453704	      4.05005354	     10.63658486	      5.17118461	     10.10429592	      8.94784076	      1.87366993	      7.01022032	      5.10054678	      3.63062846	      3.06804688	      5.09868273	      4.78517983	      2.76660620	      1.92877390	      4.55463172	      6.92588930	      5.19036992	     25.18194020	     15.83492996	      4.49632974	      3.26700371	      5.49701016	     13.98351246	      0.00000000	      0.00000000	      0.00000000	     19.09762428	      8.91518526	     42.30430159	     46.98024279	      4.03489567	      3.51233116	     10.96229103	      5.79390531	     15.63585929	      2.44950161	      7.80066333	      2.49981981	     30.87508666	     30.87508666	     11.31953784	     11.31953784	     28.89070393	     28.89070393	    195.86023841	    132.64519575	     10.68523716	     -7.36360632	      4.53727463	     77.46230533	   -195.86023841	   -132.64519575	    -10.68523716	      3.47828708	     -5.33053957	      3.60303038	      0.00000000	      0.00000000	      0.00000000	      0.00000000	      0.00000000	      0.00000000	      0.00000000	      0.00000000	      0.00000000	      0.00000000	      0.00000000	      0.00000000	   -857.88628450	   -334.56715017	    301.10976290	     -7.29305442	     21.19842112	      2.98639784	    857.88628450	    334.56715017	   -301.10976290	    127.16103419	    -15.09812367	    345.30538093	   -259.30395459	   -109.10242059	    -69.36870973	      3.48184614	     -8.91848971	      1.02200957	    259.30395459	    109.10242059	     69.36870973	    -30.62212825	      6.34849809	    104.47187689	     -2.61115050	      0.00000000	   1003.08720684	    645.57109751	     25.83183808	     15.30989107	      0.00000000	      0.00000000	      0.00000000	      0.00000000	      0.00000000	      0.00000000	      0.00000001	      0.00000000
      0.21451126	      9.57783821	      7.05647001	      7.57403497	      3.28090975	      3.85405619	      4.04944030	      0.00000000	    165.61856242	    180.00134795	    341.47281313	    122.02750647	      7.00922384	      5.09986681	      3.63012168	      3.06760807	      5.09788706	      3.12181758	      2.76623136	     92.68902631	      4.55399063	      6.92491184	      5.18962485	     25.18012673	     15.83286814	      4.49571136	      3.26670657	      5.49618438	    224.98876622	     40.91514232	     75.74213174	     56.93742690	      0.00000000	      0.00000000	      0.00000000	      0.00000000	      0.00000000	      0.00000000	     34.00898903	      1.89285712	      4.26373323	     24.07365505	     47.64205182	     10.94453451	      9.57783821	      7.05647001	      7.57403497	      3.28090975	      3.85405619	      4.04944030	     10.63682462	      5.17040636	     10.10260197	      8.94660903	      1.87341898	      7.00922384	      5.09986681	      3.63012168	      3.06760807	      5.09788706	      4.78468732	      2.76623136	      1.92851100	      4.55399063	      6.92491184	      5.18962485	     25.18012673	     15.83286814	      4.49571136	      3.26670657	      5.49618438	     13.98116449	      0.00000000	      0.00000000	      0.00000000	     19.09503883	      8.91391316	     42.29695603	     46.97705240	      4.03334812	      3.51097969	     10.96050840	      5.79289006	     15.63375680	      2.44918340	      7.79987629	      2.49957843	     30.87092247	     30.87092247	     11.31788055	     11.31788055	     28.88921034	     28.88921034	    191.75911804	    131.94118104	     10.64620838	     -7.33375209	      4.44250186	     75.81089006	   -191.75911804	   -131.94118104	    -10.64620838	      3.46221249	     -5.22465112	      3.61651605	      0.00000000	      0.00000000	      0.00000000	      0.00000000	      0.00000000	      0.00000000	      0.00000000	      0.00000000	      0.00000000	      0.00000000	      0.00000000	      0.00000000	   -855.00163145	   -334.94700734	    300.96184288	     -7.28936850	     21.15782908	      3.05031756	    855.00163145	    334.94700734	   -300.96184288	    127.10341267	    -15.05457327	    344.12150164	   -258.88882370	   -109.11494885	    -69.32179255	      3.48072809	     -8.90798884	      1.03302515	    258.88882370	    109.11494885	     69.32179255	    -30.60290005	      6.33955331	    104.30011232	     -2.40603039	      0.00000000	   1004.20055853	    647.55468386	     26.72984614	     16.30434844	      0.00000000	      0.00000000	      0.00000000	      0.00000000	      0.00000000	      0.00000000	      0.00000001	      0.00000000
